<svg width="32" height="32" viewBox="0 0 32 32" fill="none" xmlns="http://www.w3.org/2000/svg">
<g id="Icons">
<path id="Vector" d="M19.6251 24.4162L15.6251 30.4162C15.5147 30.582 15.343 30.6971 15.1477 30.7363C14.9524 30.7754 14.7496 30.7354 14.5838 30.625C14.4181 30.5146 14.303 30.3429 14.2638 30.1476C14.2247 29.9523 14.2647 29.7495 14.3751 29.5837L18.3751 23.5837C18.4855 23.418 18.6572 23.3029 18.8525 23.2637C19.0477 23.2246 19.2506 23.2646 19.4163 23.375C19.5821 23.4854 19.6972 23.6571 19.7364 23.8524C19.7755 24.0477 19.7355 24.2505 19.6251 24.4162ZM28.7501 11.5C28.7471 13.9523 27.7716 16.3034 26.0375 18.0374C24.3035 19.7715 21.9524 20.747 19.5001 20.75H16.4013L12.6251 26.4162C12.5704 26.4983 12.5001 26.5688 12.4182 26.6237C12.3363 26.6786 12.2444 26.7169 12.1477 26.7363C12.051 26.7557 11.9514 26.7558 11.8547 26.7367C11.7579 26.7176 11.6659 26.6797 11.5838 26.625C11.5018 26.5703 11.4312 26.5 11.3763 26.4181C11.3214 26.3362 11.2832 26.2443 11.2638 26.1476C11.2444 26.0509 11.2443 25.9514 11.2634 25.8546C11.2825 25.7579 11.3204 25.6658 11.3751 25.5837L14.5988 20.75H9.50008C8.62797 20.7456 7.76644 20.5587 6.97088 20.2013C6.17533 19.844 5.46337 19.3241 4.88079 18.6751C4.2982 18.0261 3.85789 17.2624 3.58816 16.4331C3.31844 15.6037 3.22527 14.7271 3.31465 13.8595C3.40403 12.992 3.67398 12.1528 4.10715 11.3958C4.54031 10.6389 5.1271 9.98098 5.82977 9.46441C6.53244 8.94784 7.33545 8.58404 8.18715 8.39642C9.03885 8.2088 9.92039 8.2015 10.7751 8.37499C11.5119 6.32327 12.949 4.59731 14.8334 3.501C16.7177 2.4047 18.9284 2.00835 21.0762 2.38175C23.224 2.75516 25.1712 3.87436 26.5749 5.5423C27.9787 7.21025 28.7489 9.31997 28.7501 11.5ZM27.2501 11.5C27.2435 9.48648 26.4543 7.55441 25.0493 6.11213C23.6443 4.66984 21.7335 3.83037 19.7209 3.77112C17.7082 3.71188 15.7514 4.43751 14.264 5.79466C12.7765 7.1518 11.8751 9.0341 11.7501 11.0437C11.7385 11.2427 11.6483 11.4288 11.4995 11.5613C11.3506 11.6937 11.1552 11.7616 10.9563 11.75C10.7574 11.7384 10.5713 11.6482 10.4388 11.4994C10.3064 11.3505 10.2385 11.1552 10.2501 10.9562C10.2722 10.5789 10.3169 10.2032 10.3838 9.83124C9.73469 9.70962 9.06732 9.7247 8.42434 9.87552C7.78136 10.0263 7.17689 10.3096 6.64954 10.7072C6.12219 11.1048 5.68354 11.6079 5.36161 12.1846C5.03968 12.7613 4.84154 13.3987 4.77985 14.0563C4.71815 14.7138 4.79425 15.377 5.00329 16.0035C5.21233 16.63 5.54972 17.206 5.99391 17.6947C6.4381 18.1834 6.97932 18.5742 7.58303 18.842C8.18673 19.1098 8.83964 19.2487 9.50008 19.25H19.5001C21.5548 19.2477 23.5247 18.4304 24.9776 16.9775C26.4305 15.5246 27.2478 13.5547 27.2501 11.5Z" fill="#3B3B55"/>
</g>
</svg>
